<svg width="193" height="47" viewBox="0 0 193 47" fill="none" xmlns="http://www.w3.org/2000/svg">
<path d="M4.68754 46C3.49287 46 2.46887 45.6373 1.61554 44.912C0.804869 44.144 0.399535 43.2053 0.399535 42.096V5.104C0.399535 3.99466 0.804869 3.07733 1.61554 2.352C2.4262 1.584 3.4502 1.2 4.68754 1.2H18.8955C22.6929 1.2 26.0422 1.92533 28.9435 3.376C31.8875 4.82667 34.1489 6.87466 35.7275 9.52C37.3489 12.1227 38.1595 15.1093 38.1595 18.48V28.592C38.1595 31.9627 37.3489 34.9707 35.7275 37.616C34.1062 40.2613 31.8235 42.3307 28.8795 43.824C25.9782 45.2747 22.6502 46 18.8955 46H4.68754ZM18.2555 38.64C21.9675 38.64 24.7835 37.808 26.7035 36.144C28.6235 34.4373 29.5835 31.9413 29.5835 28.656V18.352C29.5835 15.152 28.6235 12.72 26.7035 11.056C24.7835 9.392 21.9675 8.56 18.2555 8.56H8.97554V38.64H18.2555ZM62.367 7.024C62.367 5.01867 63.1137 3.46133 64.607 2.352C66.1004 1.2 68.2124 0.623997 70.943 0.623997V40.176C70.943 42.224 70.1964 43.8027 68.703 44.912C67.2097 46.0213 65.0977 46.576 62.367 46.576V7.024ZM115.348 46.576C113.3 46.576 111.913 45.6373 111.188 43.76L94.868 1.456C95.2947 1.24266 95.8707 1.05066 96.596 0.879997C97.3214 0.70933 97.9614 0.623997 98.516 0.623997C101.887 0.623997 104.063 1.98933 105.044 4.72L114.9 32.304L113.364 36.4L114.068 36.656L125.588 4.72C126.612 1.98933 128.788 0.623997 132.116 0.623997C132.671 0.623997 133.311 0.70933 134.036 0.879997C134.761 1.05066 135.359 1.24266 135.828 1.456L119.508 43.76C119.167 44.656 118.633 45.36 117.908 45.872C117.225 46.3413 116.372 46.576 115.348 46.576ZM158.462 5.104C158.462 4.03733 158.867 3.12 159.678 2.352C160.531 1.584 161.555 1.2 162.75 1.2H191.294C191.294 3.76 190.846 5.63733 189.95 6.832C189.097 7.984 187.689 8.56 185.726 8.56H167.038V19.696H184.062C184.062 22.256 183.614 24.1333 182.718 25.328C181.865 26.48 180.457 27.056 178.494 27.056H167.038V38.64H187.07C188.99 38.64 190.377 39.2373 191.23 40.432C192.126 41.584 192.574 43.44 192.574 46H162.75C161.555 46 160.531 45.6373 159.678 44.912C158.867 44.144 158.462 43.2053 158.462 42.096V5.104Z" fill="white"/>
</svg>
