<svg width="370" height="100" viewBox="0 0 370 100" fill="none"
  xmlns="http://www.w3.org/2000/svg">
  <path d="M109.843 21.3542L109.927 21.3555L110.01 21.3541C113.569 21.2913 117.807 21.5505 121.745 23.5391C125.492 25.4318 129.524 29.1759 132.19 37.2085L132.273 37.4602C132.285 37.5087 132.302 37.5749 132.321 37.6609C132.428 38.1347 132.613 39.123 132.81 40.9027C133.204 44.4683 133.623 50.9964 133.623 62.5437C133.623 63.8888 132.317 67.3416 128.095 70.7509C124.119 73.9627 118.022 76.6817 109.836 76.8233C100.572 76.9836 94.4586 77.0165 90.5896 76.9934C89.3563 76.986 88.3593 76.973 87.5667 76.9569L79.2239 62.4597L74.6911 54.5831L70.4641 62.6279L63.0057 76.8226H34.7933C30.9698 76.8226 25.4695 75.2847 20.9886 72.3698C16.4785 69.4359 14.0469 65.8535 14.0469 62.1421C14.0469 59.0566 14.0234 57.5284 14.009 56.595C13.9932 55.5656 13.9885 55.2596 14.0387 54.3859C14.0748 53.7572 14.1333 52.9582 14.2278 51.6656C14.411 49.1618 14.7297 44.8057 15.284 36.2464C15.8157 33.4662 17.2261 29.9749 20.1771 27.1142C23.134 24.2479 28.0233 21.6359 36.2325 21.3518C54.6563 20.7143 92.9382 21.0861 109.843 21.3542Z" stroke="black" stroke-opacity="0.2" stroke-width="10"/>
  <path d="M51.6714 20.1289L25.7092 76.1098L15.5677 73.2702L13.1338 61.1005V35.5439L24.4922 21.7515L51.6714 20.1289Z" fill="white" fill-opacity="0.2"/>
  <path d="M97 20.5L122 74.0816H126.718L134.5 61.5L132 32.5L117.794 22.5629L97 20.5Z" fill="white" fill-opacity="0.2"/>
  <path d="M109.859 20.3543L109.926 20.3554L109.993 20.3542C113.6 20.2906 118.036 20.5461 122.195 22.6465C126.202 24.67 130.398 28.636 133.139 36.8935L133.212 37.115L133.221 37.1348C133.239 37.1974 133.264 37.2973 133.297 37.4412C133.414 37.9608 133.604 38.9874 133.803 40.7928C134.203 44.4084 134.623 50.9763 134.623 62.5437C134.623 64.3072 133.072 68.0174 128.724 71.5289C124.572 74.8823 118.259 77.6777 109.853 77.8232C100.585 77.9835 94.4632 78.0165 90.5837 77.9934C89.0361 77.9841 87.8557 77.966 86.981 77.9439L78.3572 62.9585L74.731 56.6572L71.3493 63.093L63.61 77.8226H34.7933C30.759 77.8226 25.0715 76.2187 20.4433 73.2081C15.7917 70.1822 13.0469 66.3322 13.0469 62.1421C13.0469 59.136 13.024 57.6049 13.0097 56.6513C12.9936 55.5709 12.9885 55.2317 13.0404 54.3286C13.0764 53.701 13.1352 52.8973 13.2301 51.5984C13.4144 49.0788 13.7349 44.696 14.2901 36.1206C14.8427 33.1734 16.3304 29.4504 19.4811 26.3962C22.638 23.336 27.7734 20.644 36.1979 20.3524C54.6512 19.7139 92.9584 20.0863 109.859 20.3543Z" stroke="#2D8AEC" stroke-width="8"/>
  <path d="M178.688 71C177.493 71 176.469 70.6373 175.616 69.912C174.805 69.144 174.4 68.2053 174.4 67.096V30.104C174.4 28.9947 174.805 28.0773 175.616 27.352C176.426 26.584 177.45 26.2 178.688 26.2H192.896C196.693 26.2 200.042 26.9253 202.944 28.376C205.888 29.8267 208.149 31.8747 209.728 34.52C211.349 37.1227 212.16 40.1093 212.16 43.48V53.592C212.16 56.9627 211.349 59.9707 209.728 62.616C208.106 65.2613 205.824 67.3307 202.88 68.824C199.978 70.2747 196.65 71 192.896 71H178.688ZM192.256 63.64C195.968 63.64 198.784 62.808 200.704 61.144C202.624 59.4373 203.584 56.9413 203.584 53.656V43.352C203.584 40.152 202.624 37.72 200.704 36.056C198.784 34.392 195.968 33.56 192.256 33.56H182.976V63.64H192.256ZM236.367 32.024C236.367 30.0187 237.114 28.4613 238.607 27.352C240.1 26.2 242.212 25.624 244.943 25.624V65.176C244.943 67.224 244.196 68.8027 242.703 69.912C241.21 71.0213 239.098 71.576 236.367 71.576V32.024ZM289.348 71.576C287.3 71.576 285.913 70.6373 285.188 68.76L268.868 26.456C269.295 26.2427 269.871 26.0507 270.596 25.88C271.321 25.7093 271.961 25.624 272.516 25.624C275.887 25.624 278.063 26.9893 279.044 29.72L288.9 57.304L287.364 61.4L288.068 61.656L299.588 29.72C300.612 26.9893 302.788 25.624 306.116 25.624C306.671 25.624 307.311 25.7093 308.036 25.88C308.761 26.0507 309.359 26.2427 309.828 26.456L293.508 68.76C293.167 69.656 292.633 70.36 291.908 70.872C291.225 71.3413 290.372 71.576 289.348 71.576ZM332.462 30.104C332.462 29.0373 332.867 28.12 333.678 27.352C334.531 26.584 335.555 26.2 336.75 26.2H365.294C365.294 28.76 364.846 30.6373 363.95 31.832C363.097 32.984 361.689 33.56 359.726 33.56H341.038V44.696H358.062C358.062 47.256 357.614 49.1333 356.718 50.328C355.865 51.48 354.457 52.056 352.494 52.056H341.038V63.64H361.07C362.99 63.64 364.377 64.2373 365.23 65.432C366.126 66.584 366.574 68.44 366.574 71H336.75C335.555 71 334.531 70.6373 333.678 69.912C332.867 69.144 332.462 68.2053 332.462 67.096V30.104Z" fill="white"/>
</svg>
