<svg width="150" height="100" viewBox="0 0 150 100" fill="none"
  xmlns="http://www.w3.org/2000/svg">
  <path d="M110.843 22.3542L110.927 22.3555L111.01 22.3541C114.569 22.2913 118.807 22.5505 122.745 24.5391C126.492 26.4318 130.524 30.1759 133.19 38.2085L133.273 38.4602C133.285 38.5087 133.302 38.5749 133.321 38.6609C133.428 39.1347 133.613 40.123 133.81 41.9027C134.204 45.4683 134.623 51.9964 134.623 63.5437C134.623 64.8888 133.317 68.3416 129.095 71.7509C125.119 74.9627 119.022 77.6817 110.836 77.8233C101.572 77.9836 95.4586 78.0165 91.5896 77.9934C90.3563 77.986 89.3593 77.973 88.5667 77.9569L80.2239 63.4597L75.6911 55.5831L71.4641 63.6279L64.0057 77.8226H35.7933C31.9698 77.8226 26.4695 76.2847 21.9886 73.3698C17.4785 70.4359 15.0469 66.8535 15.0469 63.1421C15.0469 60.0566 15.0234 58.5284 15.009 57.595C14.9932 56.5656 14.9885 56.2596 15.0387 55.3859C15.0748 54.7572 15.1333 53.9582 15.2278 52.6656C15.411 50.1618 15.7297 45.8057 16.284 37.2464C16.8157 34.4662 18.2261 30.9749 21.1771 28.1142C24.134 25.2479 29.0233 22.6359 37.2325 22.3518C55.6563 21.7143 93.9382 22.0861 110.843 22.3542Z" stroke="black" stroke-opacity="0.2" stroke-width="10"/>
  <path d="M52.6714 21.1289L26.7092 77.1098L16.5677 74.2702L14.1338 62.1005V36.5439L25.4922 22.7515L52.6714 21.1289Z" fill="white" fill-opacity="0.2"/>
  <path d="M98 21.5L123 75.0816H127.718L135.5 62.5L133 33.5L118.794 23.5629L98 21.5Z" fill="white" fill-opacity="0.2"/>
  <path d="M110.859 21.3543L110.926 21.3554L110.993 21.3542C114.6 21.2906 119.036 21.5461 123.195 23.6465C127.202 25.67 131.398 29.636 134.139 37.8935L134.212 38.115L134.221 38.1348C134.239 38.1974 134.264 38.2973 134.297 38.4412C134.414 38.9608 134.604 39.9874 134.803 41.7928C135.203 45.4084 135.623 51.9763 135.623 63.5437C135.623 65.3072 134.072 69.0174 129.724 72.5289C125.572 75.8823 119.259 78.6777 110.853 78.8232C101.585 78.9835 95.4632 79.0165 91.5837 78.9934C90.0361 78.9841 88.8557 78.966 87.981 78.9439L79.3572 63.9585L75.731 57.6572L72.3493 64.093L64.61 78.8226H35.7933C31.759 78.8226 26.0715 77.2187 21.4433 74.2081C16.7917 71.1822 14.0469 67.3322 14.0469 63.1421C14.0469 60.136 14.024 58.6049 14.0097 57.6513C13.9936 56.5709 13.9885 56.2317 14.0404 55.3286C14.0764 54.701 14.1352 53.8973 14.2301 52.5984C14.4144 50.0788 14.7349 45.696 15.2901 37.1206C15.8427 34.1734 17.3304 30.4504 20.4811 27.3962C23.638 24.336 28.7734 21.644 37.1979 21.3524C55.6512 20.7139 93.9584 21.0863 110.859 21.3543Z" stroke="#2D8AEC" stroke-width="8"/>
</svg>
